<?xml version="1.0" standalone="no"?>
<!DOCTYPE svg PUBLIC "-//W3C//DTD SVG 20010904//EN"
 "http://www.w3.org/TR/2001/REC-SVG-20010904/DTD/svg10.dtd">
<svg version="1.0" xmlns="http://www.w3.org/2000/svg"
 width="499.000000pt" height="297.000000pt" viewBox="0 0 499.000000 297.000000"
 preserveAspectRatio="xMidYMid meet">

<g transform="translate(0.000000,297.000000) scale(0.100000,-0.100000)"
fill="#000000" stroke="none">
<path d="M907 2593 c-4 -3 -7 -28 -7 -55 l0 -48 225 0 225 0 0 55 0 55 -218 0
c-120 0 -222 -3 -225 -7z"/>
<path d="M1680 2595 c0 -4 52 -166 116 -361 l116 -354 73 0 74 0 -100 293
c-56 160 -111 321 -123 357 l-23 65 -66 3 c-37 2 -67 0 -67 -3z"/>
<path d="M3670 2360 l120 -240 0 -120 0 -120 70 0 70 0 0 121 0 121 -112 239
-113 239 -78 0 -77 0 120 -240z"/>
<path d="M3964 2465 l-64 -136 27 -64 c16 -36 30 -65 33 -65 6 0 200 381 200
393 0 4 -30 7 -66 7 l-65 0 -65 -135z"/>
<path d="M1525 2267 c-54 -160 -106 -313 -117 -339 l-18 -48 68 0 68 0 28 85
27 85 106 0 105 0 -6 25 c-19 74 -20 75 -96 75 -38 0 -70 4 -70 8 0 4 15 54
34 110 l35 102 -26 88 c-14 48 -28 90 -32 94 -4 4 -51 -124 -106 -285z"/>
<path d="M900 2155 l0 -275 70 0 70 0 0 275 0 275 -70 0 -70 0 0 -275z"/>
<path d="M1100 2225 l0 -55 105 0 105 0 0 55 0 55 -105 0 -105 0 0 -55z"/>
<path d="M1780 1315 c-113 -24 -216 -49 -230 -56 l-25 -11 23 -15 c25 -17 29
-38 8 -46 -7 -3 -23 -23 -34 -46 -20 -37 -20 -42 -5 -56 15 -16 72 -161 138
-352 25 -74 27 -83 12 -97 -14 -14 -14 -21 1 -77 9 -33 20 -60 25 -60 4 1 17
1 28 1 17 0 20 5 17 25 -5 23 -2 25 31 25 41 0 265 35 279 44 6 3 12 -1 16 -9
7 -19 45 -20 52 -1 8 21 -16 126 -30 132 -9 3 -9 39 1 157 7 83 15 183 17 221
3 38 9 73 15 79 14 14 -67 97 -96 97 -18 0 -23 6 -23 24 0 14 5 28 10 31 17
10 11 35 -7 34 -10 0 -110 -20 -223 -44z m176 -43 c-3 -5 -34 -13 -68 -16 -35
-4 -105 -16 -157 -27 -111 -23 -121 -23 -121 -5 0 15 111 46 250 70 60 10 78
10 89 0 7 -6 11 -16 7 -22z m-336 -299 c43 -92 46 -101 32 -88 -15 14 -82 165
-74 165 4 -1 23 -35 42 -77z m444 -12 c-4 -44 -10 -81 -13 -81 -4 0 -4 30 0
68 5 37 8 76 8 86 1 11 3 17 6 14 3 -3 3 -42 -1 -87z m-154 -367 c-41 -7 -95
-12 -120 -12 -34 1 -24 4 40 13 114 16 175 16 80 -1z"/>
<path d="M2390 1350 c-63 -4 -123 -8 -132 -9 -22 -1 -23 -17 -3 -37 19 -19 19
-34 1 -34 -8 0 -29 -18 -46 -40 -29 -37 -31 -42 -17 -58 9 -10 30 -101 53
-236 35 -202 36 -220 21 -231 -18 -13 -23 -77 -11 -123 9 -30 57 -28 62 3 3
19 7 20 105 13 56 -5 130 -5 165 -2 53 5 62 3 62 -11 0 -12 7 -15 28 -13 26 3
27 6 30 64 2 43 -1 64 -11 73 -12 10 -7 40 34 204 27 105 49 202 49 213 0 12
7 24 15 28 16 6 21 36 6 36 -5 0 -18 16 -30 35 -11 19 -32 40 -46 47 -30 13
-32 32 -6 55 11 9 18 20 15 25 -6 9 -172 8 -344 -2z m268 -52 c3 -17 -10 -18
-172 -18 -147 0 -176 2 -176 14 0 18 53 23 225 22 106 -1 120 -3 123 -18z m86
-52 c6 -10 21 -31 33 -46 12 -15 20 -30 17 -33 -8 -7 -588 4 -597 12 -4 4 4
23 18 42 23 31 32 35 88 40 34 4 145 6 246 5 168 -1 185 -3 195 -20z m-226
-96 c235 0 252 -1 252 -18 0 -14 -36 -163 -91 -374 -6 -22 -16 -38 -24 -38
-11 0 -15 -13 -15 -55 l0 -55 -144 0 c-79 0 -151 3 -160 6 -10 4 -16 18 -16
39 0 18 -7 46 -15 62 -11 21 -85 404 -85 440 0 3 10 3 23 -1 12 -3 136 -6 275
-6z"/>
<path d="M2348 1223 c-70 -3 -108 -8 -108 -15 0 -7 17 -9 53 -4 28 3 144 7
257 7 146 2 186 4 140 9 -66 8 -149 8 -342 3z"/>
<path d="M2493 1042 c-3 -12 -13 -22 -22 -22 -22 0 -75 -55 -67 -69 11 -17 27
-13 54 12 17 15 26 18 29 10 7 -19 27 -16 47 6 19 21 12 45 -19 71 -14 11 -17
10 -22 -8z"/>
<path d="M2557 974 c-3 -4 -3 -19 0 -35 5 -25 2 -29 -16 -29 -26 0 -27 -21 -2
-44 18 -16 21 -16 50 -1 32 16 39 29 21 40 -6 4 -8 10 -5 15 8 14 -13 60 -28
60 -8 0 -16 -3 -20 -6z"/>
<path d="M2410 894 c-14 -36 -12 -46 8 -42 9 1 28 -5 41 -14 18 -13 29 -14 43
-7 23 13 18 34 -8 34 -13 0 -18 6 -17 21 2 15 -5 24 -20 28 -34 9 -37 8 -47
-20z"/>
<path d="M3062 1350 c-125 -7 -167 -20 -129 -41 20 -12 23 -39 3 -39 -14 0
-66 -61 -66 -78 0 -5 6 -22 14 -38 8 -16 30 -121 49 -233 35 -199 35 -204 17
-220 -17 -14 -18 -25 -13 -78 6 -61 7 -63 34 -63 24 0 29 4 29 26 0 21 4 24
20 19 11 -4 85 -7 165 -8 105 -2 146 -5 150 -15 2 -6 16 -12 30 -12 24 0 25 2
25 65 0 36 -5 73 -11 83 -9 14 1 63 42 222 28 113 58 212 66 221 11 14 11 18
-2 29 -9 8 -23 26 -31 42 -8 16 -26 33 -39 38 -28 11 -34 47 -10 56 8 4 15 12
15 20 0 15 -124 17 -358 4z m278 -50 c0 -19 -7 -20 -175 -20 -146 0 -175 2
-175 14 0 17 40 21 228 24 116 2 122 1 122 -18z m-372 -360 c0 -14 -9 16 -19
65 -10 50 -18 99 -18 110 1 11 9 -18 20 -65 10 -47 18 -96 17 -110z m435 17
c-9 -48 -20 -87 -24 -87 -3 0 0 30 7 68 21 100 25 115 29 110 3 -2 -3 -43 -12
-91z m-144 -333 c8 -7 -132 -2 -189 6 -37 6 -16 7 65 3 66 -3 122 -7 124 -9z"/>
</g>
</svg>
